<?xml version="1.0" encoding="UTF-8"?>
<svg id="Layer_2" xmlns="http://www.w3.org/2000/svg" version="1.1" viewBox="0 0 92.4 92.4">
  <!-- Generator: Adobe Illustrator 30.3.0, SVG Export Plug-In . SVG Version: 2.1.3 Build 182)  -->
  <defs>
    <style>
      .st0 {
        fill: #fff;
      }

      .st1 {
        fill: #1f93ff;
      }
    </style>
  </defs>
  <g id="Layer_1-2">
    <g>
      <rect class="st0" y="0" width="92.4" height="92.4" rx="23.7" ry="23.7"/>
      <g>
        <path class="st1" d="M23,18h46.4v9.9h-36.1c-.7,2.1-.8,34,0,36.4,3.9.3,7.9,0,11.9.1,4,0,8,0,12.1,0h12.2v9.8H23.2c-.5-1.6-.8-52.6-.2-56.3Z"/>
        <path class="st1" d="M47.9,33.2h21.3c.6,1.8.7,23.5.2,25.9-1.7.5-18.9.6-21.4,0v-6.7c4.5,2.3,8.7,2.2,12.3-1.6-4.2,1.4-8.3,1.4-12.3-1.2v-16.4h0Z"/>
      </g>
    </g>
  </g>
</svg>