<?xml version="1.0" encoding="UTF-8"?>
<svg id="Layer_2" data-name="Layer 2" xmlns="http://www.w3.org/2000/svg" viewBox="0 0 92.37 92.37">
  <defs>
    <style>
      .cls-1 {
        fill: #fff;
      }

      .cls-2 {
        fill: #1d9cc0;
      }
    </style>
  </defs>
  <g id="Layer_1-2" data-name="Layer 1">
    <g>
      <rect class="cls-1" width="92.37" height="92.37" rx="23.67" ry="23.67"/>
      <g>
        <path class="cls-2" d="M23.03,18.02h46.43v9.92h-36.12c-.71,2.1-.76,34.03-.06,36.45,3.87.27,7.87.08,11.86.12,4.03.03,8.05,0,12.08,0h12.24v9.83H23.2c-.55-1.58-.75-52.61-.17-56.32Z"/>
        <path class="cls-2" d="M47.94,33.16h21.27c.56,1.84.65,23.54.15,25.94-1.71.53-18.94.61-21.4.05v-6.73c4.52,2.32,8.67,2.15,12.3-1.59-4.23,1.36-8.31,1.39-12.32-1.23v-16.43Z"/>
      </g>
    </g>
  </g>
</svg>