<?xml version="1.0" encoding="UTF-8"?>
<svg id="Layer_2" xmlns="http://www.w3.org/2000/svg" version="1.1" viewBox="0 0 145.9 42.2">
  <!-- Generator: Adobe Illustrator 30.3.0, SVG Export Plug-In . SVG Version: 2.1.3 Build 182)  -->
  <defs>
    <style>
      .st0 {
        fill: #1f93ff;
      }
    </style>
  </defs>
  <g id="Layer_1-2">
    <g>
      <path class="st0" d="M.3,0h34.8v7.4H8c-.5,1.6-.6,25.5,0,27.3,2.9.2,5.9,0,8.9,0h18.3v7.4H.4C0,41-.2,2.8.3,0Z"/>
      <path class="st0" d="M18.9,11.3h15.9c.4,1.4.5,17.6,0,19.4-1.3.4-14.2.5-16,0v-5.1c3.4,1.7,6.5,1.6,9.2-1.2-3.2,1-6.2,1-9.2-.9v-12.3h0Z"/>
      <path d="M125.8,20.7v7.2h-3.9v-13.7h3.9c2,2.5,4,5,6,7.5,0,0,.2,0,.3-.1v-7.4h3.7v13.8h-3.8c-1.9-2.4-3.8-4.9-5.8-7.4,0,0-.2.1-.4.1h0Z"/>
      <path d="M103.9,28h-3.8v-13.8h3.8c1.9,2.5,3.9,5,6.1,7.8v-7.8h3.8v13.7h-3.8c-1.9-2.4-3.8-4.9-5.8-7.4,0,0-.2,0-.3.1v7.3h0Z"/>
      <path d="M137.9,27.9v-13.7c2.7-.4,5.3-.2,8-.1v3.2c-1.3,0-2.6.2-4,.2,0,.5,0,1-.1,1.7,1.3,0,2.4.1,3.8.2v3.1c-1.2.1-2.4.2-3.6.3v1.9h3.9v3.1h-8,0Z"/>
      <path d="M66.3,13.9c3.7-.2,7.3,3.3,7.3,7.3s-3.3,7.4-7.6,7.3c-4,0-7.3-3.4-7.2-7.4,0-4.5,3.9-7.4,7.5-7.2h0ZM71.4,21.2c0-3.1-2.1-5.4-5.1-5.4s-5.4,2.2-5.4,5.3,2.3,5.4,5.2,5.4,5.4-2.5,5.3-5.3Z"/>
      <path d="M87,27.9v-13.6c2.6-.2,5.1-.4,7.5.9,4.6,2.4,4.2,9.6.4,11.7-1.9,1.1-4.2,1.5-7.8,1h0ZM89.1,16.2v10c2.4,0,4.6-.2,5.9-2.4,1.1-1.8,1.1-3.8,0-5.5-1.3-2-3.4-2.4-5.8-2.2h0Z"/>
      <path d="M74.4,14.2h2.1v8.7c0,1.9.8,3,2.3,3.4,1.7.5,3.2-.3,3.7-2,.2-.9.3-1.8.3-2.7v-7.3c.6,0,1.2-.1,1.7-.2,0,.3.3.5.3.7,0,3,0,6,0,9-.2,2.9-2.2,4.5-5,4.6-2.8,0-4.8-1.5-5.1-4.4-.3-3.1-.2-6.3-.4-9.8h.2Z"/>
      <path d="M116,28v-13.7h3.8v13.7h-3.8Z"/>
      <path d="M51.1,27.3c-2.8,1.9-7,1.3-9.4-1.5-2.2-2.6-2.2-6.5,0-9.3,2.3-2.9,7-3.4,9.4-1.7,0,.5,0,1.2,0,2.1-3.2-1.8-6.1-1.9-8.2,1.3-1.3,1.9-1.1,4.6.4,6.4,2,2.2,3.7,2.4,7.7.7v2h0Z"/>
      <path d="M53.1,28c-.4-1.4-.5-11.8,0-13.8.5,0,1,0,1.7-.1v12h4.1v1.9h-5.8Z"/>
    </g>
  </g>
</svg>