<?xml version="1.0" encoding="UTF-8"?>
<svg id="Layer_2" data-name="Layer 2" xmlns="http://www.w3.org/2000/svg" viewBox="0 0 145.95 42.2">
  <defs>
    <style>
      .cls-1 {
        fill: #1d9cc0;
      }
    </style>
  </defs>
  <g id="Layer_1-2" data-name="Layer 1">
    <g>
      <path class="cls-1" d="M.27,0h34.79v7.43H7.99c-.53,1.57-.57,25.5-.05,27.31,2.9.2,5.9.06,8.89.09,3.02.03,6.04,0,9.05,0h9.17v7.36H.39C-.02,41.02-.17,2.78.27,0Z"/>
      <path class="cls-1" d="M18.93,11.34h15.94c.42,1.38.49,17.64.11,19.44-1.28.4-14.19.46-16.04.04v-5.05c3.39,1.74,6.49,1.61,9.22-1.19-3.17,1.02-6.23,1.04-9.23-.92v-12.32Z"/>
      <path d="M125.77,20.7v7.25h-3.93c-.06-4.54-.07-9.05.04-13.73h3.89c1.97,2.5,3.97,5.03,5.96,7.55.09-.03.19-.06.28-.1v-7.45h3.72v13.75h-3.77c-1.85-2.36-3.83-4.89-5.82-7.43-.12.05-.25.1-.37.15Z"/>
      <path d="M103.91,27.97h-3.84v-13.76h3.82c1.95,2.49,3.91,4.99,6.12,7.81v-7.81h3.82v13.73h-3.78c-1.86-2.37-3.84-4.9-5.82-7.42-.11.03-.22.07-.32.1v7.34Z"/>
      <path d="M137.91,27.94v-13.66c2.66-.41,5.29-.23,8.04-.12v3.18c-1.29.08-2.56.16-3.96.24-.04.54-.07,1.02-.12,1.67,1.29.08,2.45.15,3.75.23v3.14c-1.19.1-2.35.2-3.63.31v1.88h3.94v3.12h-8.02Z"/>
      <path d="M66.34,13.86c3.73-.18,7.28,3.26,7.26,7.29-.03,4.19-3.33,7.35-7.61,7.28-4.03-.07-7.28-3.38-7.17-7.37.12-4.48,3.9-7.45,7.53-7.19ZM71.44,21.19c.03-3.07-2.12-5.35-5.11-5.41-3.04-.06-5.37,2.25-5.38,5.33-.01,2.92,2.33,5.4,5.21,5.4,2.83,0,5.44-2.51,5.28-5.32Z"/>
      <path d="M86.96,27.91v-13.65c2.58-.2,5.07-.35,7.47.88,4.62,2.37,4.16,9.56.37,11.72-1.95,1.11-4.25,1.53-7.84,1.05ZM89.1,16.16v10.04c2.39-.02,4.59-.25,5.89-2.41,1.06-1.77,1.07-3.75-.1-5.48-1.35-2-3.44-2.35-5.79-2.15Z"/>
      <path d="M74.43,14.23h2.14c.04.68.1,1.28.1,1.88.02,2.28-.03,4.55.04,6.83.06,1.93.82,2.99,2.26,3.42,1.71.5,3.25-.32,3.69-2.05.22-.87.32-1.79.33-2.69.04-2.38.02-4.77.02-7.33.64-.07,1.16-.13,1.7-.18.14.32.31.52.31.72-.02,3.01.09,6.03-.14,9.03-.22,2.88-2.2,4.54-4.98,4.57-2.8.03-4.82-1.54-5.1-4.43-.3-3.15-.25-6.34-.36-9.77Z"/>
      <path d="M116.01,27.95v-13.69h3.8v13.69h-3.8Z"/>
      <path d="M51.06,27.34c-2.76,1.88-7.01,1.3-9.36-1.52-2.21-2.65-2.21-6.54-.05-9.3,2.27-2.89,6.99-3.43,9.38-1.66.04.53.08,1.19.14,2.1-3.25-1.76-6.08-1.86-8.22,1.29-1.31,1.93-1.06,4.65.44,6.35,1.95,2.22,3.7,2.4,7.67.69v2.04Z"/>
      <path d="M53.08,28c-.43-1.41-.48-11.8-.05-13.78.47-.03.99-.07,1.71-.12v12.04h4.14v1.85h-5.81Z"/>
    </g>
  </g>
</svg>